<?xml version="1.0" encoding="UTF-8"?>
<svg width="169px" height="86px" viewBox="0 0 169 86" version="1.1" xmlns="http://www.w3.org/2000/svg" xmlns:xlink="http://www.w3.org/1999/xlink">
    <!-- Generator: Sketch 53 (72520) - https://sketchapp.com -->
    <title>Group 36</title>
    <desc>Created with Sketch.</desc>
    <defs>
        <polygon id="path-1" points="0.0666275081 0.0421286399 20.7174951 0.0421286399 20.7174951 12.6898227 0.0666275081 12.6898227"></polygon>
    </defs>
    <g id="Welcome" stroke="none" stroke-width="1" fill="none" fill-rule="evenodd">
        <g id="Desktop-HD" transform="translate(-84.000000, -70.000000)">
            <g id="Group-36" transform="translate(84.000000, 70.000000)">
                <path d="M4.47517241,38.6180662 L2.69774295,38.6180662 C0.921630094,38.6180662 0,37.6762278 0,35.7925509 L0,34.64889 C0,32.8324873 0.921630094,31.8233747 2.76357367,31.8233747 L4.56338558,31.8233747 C4.62394984,31.8233747 4.67266458,31.7735918 4.67266458,31.7116996 L4.67266458,24.9371904 C4.67266458,23.3145373 5.96031348,22 7.54815047,22 L9.96282132,22 C11.5506583,22 12.8369906,23.3145373 12.8369906,24.9371904 L12.8369906,31.7116996 C12.8369906,31.7735918 12.8870219,31.8233747 12.9475862,31.8233747 L17.599185,31.8233747 C19.1870219,31.8233747 20.4733542,33.1392575 20.4733542,34.7619106 L20.4733542,35.7925509 C20.4733542,37.6762278 19.4858934,38.6180662 17.7756113,38.6180662 L12.9475862,38.6180662 C12.8870219,38.6180662 12.8369906,38.6678491 12.8369906,38.7297413 L12.8369906,51.9383524 C12.8369906,57.052535 15.9310345,58.0616476 18.2351097,58.3307443 C20.2758621,58.5312213 21,59.2039631 21,61.0889854 L21,63.1731393 C21,65.1913644 19.8808777,66 17.5768025,66 C11.5848903,66 4.47517241,62.7035655 4.47517241,53.4183842 L4.47517241,38.6180662 Z" id="Fill-1" fill="#FFFFFF"></path>
                <path d="M24,20.9514957 C24,19.3209397 25.3418427,18 26.9965076,18 L29.8311159,18 C31.7519541,18 32.7137452,19.0140274 32.7137452,20.8392767 L32.7137452,34.7666047 C32.7137452,36.4566503 32.5065691,37.6734832 32.5065691,37.6734832 L32.6437718,37.6734832 C34.3588059,34.3609937 38.7492932,30.7104952 44.7862132,30.7104952 C52.5395393,30.7104952 57,34.6990029 57,43.8252493 L57,63.1593713 C57,65.0535744 55.9696075,66 54.1173707,66 L51.2827623,66 C49.6280975,66 48.2862548,64.6777083 48.2862548,63.0485043 L48.2862548,45.5815447 C48.2862548,41.3915836 47.1872609,38.5523069 42.7967737,38.5523069 C36.6912523,38.5523069 32.7137452,43.4196383 32.7137452,49.9770154 L32.7137452,63.0471523 C32.7137452,64.6777083 31.3719025,66 29.7172377,66 L26.8812573,66 C25.0290205,66 24,65.0535744 24,63.1593713 L24,20.9514957 Z" id="Fill-3" fill="#FFFFFF"></path>
                <path d="M71.6498911,60.4594045 C76.4284291,60.4594045 79.5235115,55.6056811 79.5235115,51.426086 L79.5235115,50.1452423 L78.1105391,50.1452423 C73.8043376,50.1452423 66.4676467,50.8193705 66.4676467,55.9427452 C66.4676467,58.2361295 68.2183868,60.4594045 71.6498911,60.4594045 M78.041909,44.9544548 L79.4562271,44.9544548 L79.4562271,44.1455009 C79.4562271,39.6288416 76.5616522,38.0783466 73.0628635,38.0783466 C70.1696344,38.0783466 67.5455428,39.1569518 65.9307172,40.0333185 C64.2486073,40.7748596 62.9702037,40.5052083 62.1614452,38.8873005 L61.4886012,37.6064568 C60.6825341,36.0559619 60.9516717,34.7077054 62.5664973,33.8313386 C64.7855368,32.6853206 68.6893776,31 73.8043376,31 C82.6845325,31 88,35.988549 88,44.6848035 L88,63.2462507 C88,64.872248 86.6852628,66.1908429 85.0623632,66.1908429 L82.8877314,66.1908429 C81.0710526,66.1908429 80.129071,65.2470633 80.129071,63.358156 L80.129071,62.0098995 C80.129071,61.0661199 80.2622942,60.5281656 80.2622942,60.5281656 L80.129071,60.5281656 C80.129071,60.5281656 76.5576152,67.6806663 68.1672506,66.9472148 C61.9582463,66.4025191 57.0841645,60.9690454 58.1459123,54.8142545 C59.5938726,46.4267509 70.8747748,44.9544548 78.041909,44.9544548" id="Fill-5" fill="#FFFFFF"></path>
                <path d="M93,20.930857 C93,19.3117028 94.2906304,18 95.8821439,18 L98.4990356,18 C100.054918,18 101.313877,19.282166 101.313877,20.8637279 L101.313877,54.318192 C101.313877,57.6759902 102.699523,58.2788096 103.953203,58.4130678 C105.140899,58.547326 106,59.2857463 106,60.8297158 L106,63.1121056 C106,64.8574625 105.206883,66 103.227388,66 C98.740534,66 93,64.7903334 93,54.9894831 L93,20.930857 Z" id="Fill-7" fill="#FFFFFF"></path>
                <path d="M108.315041,71.4002111 C108.93157,71.6668704 109.753609,72.0001944 110.781158,72.0001944 C113.315778,72.0001944 115.303743,69.8682537 116.331292,67.466987 L117.613673,64.5110691 C117.626003,64.4830699 117.626003,64.4510708 117.613673,64.4244049 L104.341852,34.2665759 C103.451309,32.3332963 104.341852,31 106.533956,31 L110.233132,31 C111.945713,31 112.906129,31.733313 113.452785,33.2666037 L120.030468,50.5994556 C120.646997,52.3994056 121.33203,55.2006611 121.33203,55.2006611 L121.469036,55.2006611 C121.469036,55.2006611 122.085565,52.5340685 122.632221,50.7327852 L128.798885,33.3332685 C129.278407,31.733313 130.305956,31 132.018538,31 L135.443701,31 C137.568672,31 138.457844,32.2666315 137.772811,34.1999111 L123.387127,70.0669148 C120.989513,76.2667426 115.920272,79 110.781158,79 C108.863067,79 107.150485,78.4680148 105.917427,78.0000278 C104.273349,77.4013777 103.862329,75.9334185 104.615865,74.4001278 L105.232394,72.9335018 C105.98593,71.4002111 107.150485,71.1335518 108.315041,71.4002111" id="Fill-9" fill="#FFFFFF"></path>
                <path d="M145.905681,9.5373575e-05 C145.020723,-0.012007926 144.657864,1.13108148 145.39794,1.58966206 C151.281997,5.22872081 156.690944,10.7451358 158.022296,17.7637048 C159.354954,24.7822738 156.360716,31.9918059 152.241354,37.6467364 C151.721865,38.3581415 152.476298,39.2753026 153.292078,38.9216173 C162.098585,35.0983195 167.457933,25.7545722 165.650165,16.2279305 C163.841091,6.70128893 155.4614,0.123817992 145.905681,9.5373575e-05" id="Fill-11" fill="#EA401F"></path>
                <path d="M148,4 C152.677299,7.51462766 156.625701,12.293883 157.731924,18.1276596 C158.83557,23.9614362 156.920608,29.9242021 153.869804,35 C159.113736,31.8816489 162.044774,24.8710106 160.656523,17.537234 C159.268272,10.2021277 153.994721,4.84840426 148,4" id="Fill-13" fill="#EF5C48"></path>
                <g id="Group-17" transform="translate(148.000000, 41.000000)">
                    <mask id="mask-2" fill="white">
                        <use xlink:href="#path-1"></use>
                    </mask>
                    <g id="Clip-16"></g>
                    <path d="M20.6287701,0.468359684 C20.5685495,-0.00565217391 19.9248583,-0.119980237 19.7321525,0.307786561 C18.2038877,3.70679842 15.6264466,6.98249012 11.9315789,8.18357708 C8.23804951,9.38466403 4.1162848,8.28634387 0.750623039,6.47893281 C0.327740686,6.25027668 -0.11120049,6.71786561 0.140387745,7.12893281 C2.86637304,11.5710277 8.31834363,13.7856522 13.3340495,12.1542292 C18.3484172,10.5253755 21.276476,5.58614625 20.6287701,0.468359684" id="Fill-15" fill="#EA401F" mask="url(#mask-2)"></path>
                </g>
                <path d="M167,43 C165.385613,46.0022916 163.003325,48.6746915 159.802125,49.7641657 C156.603682,50.85364 153.096424,50.1869261 150,48.7897378 C152.164464,51.6187669 156.343119,52.7983376 160.36461,51.4302574 C164.3861,50.060791 166.99035,46.5692063 167,43" id="Fill-18" fill="#EF5C48"></path>
                <path d="M113.093553,14.9659977 C112.736209,15.6091568 113.472803,16.3074823 114.117665,15.940155 C119.232748,13.0190286 125.606066,11.1554819 131.534414,12.8441109 C137.461394,14.5313944 141.834407,19.4533106 144.567198,24.6093476 C144.912219,25.2578888 145.915794,25.0547151 145.963714,24.3254426 C146.482616,16.4366523 141.394915,8.97573768 133.349886,6.68431521 C125.303487,4.39423827 116.944926,8.02714529 113.093553,14.9659977" id="Fill-20" fill="#EA401F"></path>
                <path d="M117,15.7075631 C121.516419,13.6572974 126.717226,12.6002716 131.610126,13.9723224 C136.503025,15.3443732 140.312199,18.9294091 143,23 C142.667891,18.0832677 138.454,13.3800234 132.303925,11.6551968 C126.152506,9.93037011 119.994363,11.7241898 117,15.7075631" id="Fill-22" fill="#EF5C48"></path>
                <path d="M42,71.3399048 C42,71.1210061 42.1160743,71 42.3260515,71 L42.4799478,71 C42.6912292,71 42.8059993,71.1210061 42.8059993,71.3399048 L42.8059993,76.7593474 C42.8059993,77.2202583 42.7303554,77.5805574 42.7303554,77.5805574 L42.7681774,77.5805574 C43.0942289,76.6397009 44.4362569,74.760707 46.8346919,74.760707 C49.3283339,74.760707 50,76.2997961 50,78.6600952 L50,84.6600952 C50,84.8803535 49.8852299,85 49.6739485,85 L49.5213564,85 C49.3087708,85 49.1953049,84.8803535 49.1953049,84.6600952 L49.1953049,78.9592114 C49.1953049,77.2202583 48.9827193,75.5805574 46.8346919,75.5805574 C44.6475383,75.5805574 42.8059993,77.4595513 42.8059993,80.0808973 L42.8059993,84.6600952 C42.8059993,84.8803535 42.6912292,85 42.4799478,85 L42.3260515,85 C42.1160743,85 42,84.8803535 42,84.6600952 L42,71.3399048 Z" id="Fill-24" fill="#F2F2F2"></path>
                <path d="M60.1143726,80.1229891 C60.0144487,77.7942398 58.5443346,76.7446809 56.8730038,76.7446809 C55.0196198,76.7446809 53.3085932,77.8889465 52.9472243,80.1229891 L60.1143726,80.1229891 Z M56.8921673,76 C59.5107224,76 61,77.7942398 61,80.5420343 C61,80.7522055 60.8384791,80.8663726 60.6386312,80.8663726 L52.8869962,80.8663726 C52.8869962,83.6336274 54.8594677,85.2176959 57.1946768,85.2176959 C58.5853992,85.2176959 59.5914829,84.6066424 60.0336122,84.2446809 C60.2156654,84.1110535 60.3758175,84.1305138 60.4962738,84.3017644 L60.6180989,84.4548521 C60.7180228,84.5871821 60.6988593,84.7597302 60.5387072,84.8738972 C60.0541445,85.2553191 58.8454753,86 57.1946768,86 C54.3557414,86 52,84.0526725 52,81.0181629 C52,77.7942398 54.3160456,76 56.8921673,76 L56.8921673,76 Z" id="Fill-26" fill="#F2F2F2"></path>
                <path d="M64.5734463,85.2553191 C66.8389831,85.2553191 68.1271186,83.0991178 68.1271186,81.2101713 L68.1271186,80.6938246 L67.4618644,80.6938246 C65.6963277,80.6938246 61.9138418,80.6938246 61.9138418,83.1756617 C61.9138418,84.1875973 62.8079096,85.2553191 64.5734463,85.2553191 M67.440678,79.9504411 L68.1271186,79.9504411 L68.1271186,79.6261028 C68.1271186,77.5075246 66.9420904,76.7836015 65.279661,76.7836015 C64.0127119,76.7836015 63.0579096,77.2402698 62.6002825,77.5075246 C62.4138418,77.6216917 62.2471751,77.6035288 62.1016949,77.4322782 L62.0169492,77.3168137 C61.8728814,77.1455631 61.8940678,76.973015 62.0805085,76.858848 C62.5579096,76.5539699 63.680791,76 65.3206215,76 C67.7118644,76 69,77.2221069 69,79.6066424 L69,85.4460301 C69,85.6574987 68.8742938,85.7703684 68.6454802,85.7703684 L68.480226,85.7703684 C68.2514124,85.7703684 68.1271186,85.6574987 68.1271186,85.4460301 L68.1271186,84.5119357 C68.1271186,83.995589 68.2090395,83.6530877 68.2090395,83.6530877 L68.1680791,83.6530877 C68.1892655,83.6530877 67.2330508,86 64.5324859,86 C62.8488701,86 61,85.141152 61,83.2327452 C61,79.9880643 65.5918079,79.9504411 67.440678,79.9504411" id="Fill-28" fill="#F2F2F2"></path>
                <path d="M72,71.338001 C72,71.1203283 72.1042765,71 72.2929115,71 L72.4311658,71 C72.6209725,71 72.7240773,71.1203283 72.7240773,71.338001 L72.7240773,82.6339932 C72.7240773,84.0265572 73.3099004,84.1468856 73.7246632,84.2063737 C73.8793204,84.2253018 74,84.28479 74,84.5240946 L74,84.643071 C74,84.8620956 73.9297012,85 73.6883421,85 C73.1903925,85 72,84.7823274 72,82.913858 L72,71.338001 Z" id="Fill-30" fill="#F2F2F2"></path>
                <path d="M76.3200109,76.6382956 L75.3398586,76.6382956 C75.1209897,76.6382956 75,76.5173398 75,76.2946712 L75,76.2135758 C75,75.9909072 75.1209897,75.8699514 75.3398586,75.8699514 L76.3200109,75.8699514 L76.3200109,73.3436244 C76.3200109,73.1195813 76.4410005,73 76.6598695,73 L76.8202828,73 C77.0405111,73 77.1601414,73.1195813 77.1601414,73.3436244 L77.1601414,75.8699514 L79.439913,75.8699514 C79.6601414,75.8699514 79.7797716,75.9909072 79.7797716,76.2135758 L79.7797716,76.2946712 C79.7797716,76.5173398 79.6601414,76.6382956 79.439913,76.6382956 L77.1601414,76.6382956 L77.1601414,82.1981391 C77.1601414,84.9086488 78.7805873,85.1711778 79.6003263,85.2110383 C79.8994018,85.2316557 80,85.3319941 80,85.5546627 L80,85.6563756 C80,85.8584267 79.9184339,86 79.6601414,86 C77.3001631,86 76.3200109,84.4839289 76.3200109,82.2599915 L76.3200109,76.6382956 Z" id="Fill-32" fill="#F2F2F2"></path>
                <path d="M81,71.3399048 C81,71.1210061 81.1160743,71 81.3260515,71 L81.4799478,71 C81.6912292,71 81.8059993,71.1210061 81.8059993,71.3399048 L81.8059993,76.7593474 C81.8059993,77.2202583 81.7303554,77.5805574 81.7303554,77.5805574 L81.7681774,77.5805574 C82.0942289,76.6397009 83.4362569,74.760707 85.8346919,74.760707 C88.3283339,74.760707 89,76.2997961 89,78.6600952 L89,84.6600952 C89,84.8803535 88.8852299,85 88.6739485,85 L88.5213564,85 C88.3087708,85 88.1953049,84.8803535 88.1953049,84.6600952 L88.1953049,78.9592114 C88.1953049,77.2202583 87.9827193,75.5805574 85.8346919,75.5805574 C83.6475383,75.5805574 81.8059993,77.4595513 81.8059993,80.0808973 L81.8059993,84.6600952 C81.8059993,84.8803535 81.6912292,85 81.4799478,85 L81.3260515,85 C81.1160743,85 81,84.8803535 81,84.6600952 L81,71.3399048 Z" id="Fill-34" fill="#F2F2F2"></path>
            </g>
        </g>
    </g>
</svg>