<?xml version="1.0" encoding="UTF-8"?>
<svg width="88px" height="86px" viewBox="0 0 88 86" version="1.1" xmlns="http://www.w3.org/2000/svg" xmlns:xlink="http://www.w3.org/1999/xlink">
    <!-- Generator: Sketch 53 (72520) - https://sketchapp.com -->
    <title>Group 15</title>
    <desc>Created with Sketch.</desc>
    <defs>
        <polygon id="path-1" points="0.415180581 0.287619512 34.977514 0.287619512 34.977514 61.6829835 0.415180581 61.6829835"></polygon>
        <polygon id="path-3" points="0.0989981511 0.323834367 32.7762353 0.323834367 32.7762353 21 0.0989981511 21"></polygon>
    </defs>
    <g id="Welcome" stroke="none" stroke-width="1" fill="none" fill-rule="evenodd">
        <g id="Desktop-HD" transform="translate(-675.000000, -259.000000)">
            <g id="Group-15" transform="translate(675.000000, 259.000000)">
                <g id="Group-3" transform="translate(50.000000, 0.000000)">
                    <mask id="mask-2" fill="white">
                        <use xlink:href="#path-1"></use>
                    </mask>
                    <g id="Clip-2"></g>
                    <path d="M1.90586189,0.286560976 C0.449289003,0.26962439 -0.147948849,2.06701951 1.07015857,2.78894146 C10.7527161,8.51985854 19.6554271,17.2019756 21.8467315,28.2530976 C24.0401841,39.3021024 19.114046,50.6496146 12.3338926,59.5519073 C11.4788542,60.671839 12.7205934,62.1178 14.061156,61.5588927 C28.5581381,55.5421707 37.3770639,40.8306293 34.4016164,25.8332829 C31.4261688,10.8359366 17.6338414,0.48344878 1.90586189,0.286560976" id="Fill-1" fill="#EA401F" mask="url(#mask-2)"></path>
                </g>
                <path d="M56,5 C63.5569681,10.5553792 69.9345249,18.109686 71.7192424,27.3308167 C73.5039599,36.5519475 70.4108656,45.9769647 65.4831317,54 C73.9532594,49.0709935 78.6875449,37.9875601 76.4452075,26.3975635 C74.2028702,14.8033631 65.6849004,6.34102608 56,5" id="Fill-4" fill="#EF5C48"></path>
                <g id="Group-8" transform="translate(55.000000, 65.000000)">
                    <mask id="mask-4" fill="white">
                        <use xlink:href="#path-3"></use>
                    </mask>
                    <g id="Clip-7"></g>
                    <path d="M32.6368941,1.01997 C32.5416,0.24717 31.5230118,0.05817 31.2159529,0.75747 C28.7997176,6.31407 24.7211294,11.66907 18.8743059,13.63467 C13.0274824,15.59607 6.50724706,13.80267 1.18136471,10.84797 C0.512188235,10.47417 -0.1824,11.23647 0.215717647,11.91057 C4.52936471,19.17237 13.1566588,22.79067 21.0914824,20.12577 C29.0263059,17.45877 33.6597176,9.38637 32.6368941,1.01997" id="Fill-6" fill="#EA401F" mask="url(#mask-4)"></path>
                </g>
                <path d="M85,68 C82.4359744,72.6705131 78.6523396,76.8278305 73.5702701,78.5226704 C68.4903901,80.2175104 62.9178493,79.1803373 58,77.0046458 C61.439867,81.4077797 68.076555,83.2427781 74.4636283,81.1123686 C80.8485119,78.9841154 84.9846728,73.5524337 85,68" id="Fill-9" fill="#EF5C48"></path>
                <path d="M0.147434942,25.1555341 C-0.415672637,26.1710911 0.745062525,27.2737565 1.75908767,26.6937418 C9.81950879,22.0812434 19.8648302,19.1408022 29.204649,21.8050458 C38.5444678,24.4714141 45.4355237,32.2431871 49.7440518,40.3825152 C50.2877419,41.4065706 51.8670321,41.0878812 51.9425446,39.9342254 C52.7623948,27.4777178 44.7429661,15.6968317 32.0654944,12.0807689 C19.3880226,8.46470615 6.21648329,14.1989914 0.147434942,25.1555341" id="Fill-11" fill="#EA401F"></path>
                <path d="M6,23.8439864 C13.1241661,20.4291077 21.3254383,18.66526 29.0390443,20.9519703 C36.7547706,23.2408503 42.7636655,29.2158032 47,36 C46.4784093,27.8055928 39.8334281,19.9669926 30.1331127,17.092333 C20.4327972,14.2176733 10.7240006,17.2051498 6,23.8439864" id="Fill-13" fill="#EF5C48"></path>
            </g>
        </g>
    </g>
</svg>